<?xml version="1.0" encoding="UTF-8" standalone="no"?>
<svg
   xmlns:dc="http://purl.org/dc/elements/1.1/"
   xmlns:cc="http://creativecommons.org/ns#"
   xmlns:rdf="http://www.w3.org/1999/02/22-rdf-syntax-ns#"
   xmlns:svg="http://www.w3.org/2000/svg"
   xmlns="http://www.w3.org/2000/svg"
   id="svg8"
   version="1.1"
   viewBox="0 0 52.916665 13.229167"
   height="50"
   width="200">
  <defs
     id="defs2" />
  <g
     transform="translate(0,-283.77082)"
     id="layer1">
    <g
       transform="translate(-0.53991144,284.85568)"
       id="g842">
      <g
         id="text819"
         style="font-style:normal;font-weight:normal;font-size:10.58333302px;line-height:125%;font-family:sans-serif;letter-spacing:0px;word-spacing:0px;fill:#000000;fill-opacity:1;stroke:none;stroke-width:0.26458332px;stroke-linecap:butt;stroke-linejoin:miter;stroke-opacity:1"
         aria-label="Honest Bias">
        <g
           style="fill:#ffffff;fill-opacity:1"
           id="g875">
          <path
             d="M 4.138083,10.20224 H 4.4132497 V 6.6991567 H 8.7100829 V 10.20224 H 8.9852495 V 3.2384068 H 8.7100829 V 6.4663234 H 4.4132497 V 3.2384068 H 4.138083 Z"
             style="font-style:normal;font-variant:normal;font-weight:100;font-stretch:normal;font-size:10.58333301999999954px;font-family:'Apple SD Gothic Neo';-inkscape-font-specification:'Apple SD Gothic Neo, Thin';font-variant-ligatures:normal;font-variant-caps:normal;font-variant-numeric:normal;font-feature-settings:normal;text-align:start;writing-mode:lr-tb;text-anchor:start;stroke-width:0.26458332000000001px;fill:#ffffff;fill-opacity:1"
             id="path844" />
          <path
             d="m 12.64361,10.29749 c 1.23825,0 2.201334,-0.8678333 2.201334,-2.57175 V 7.63049 c 0,-1.7039166 -0.910167,-2.5294165 -2.201334,-2.5294165 -1.227666,0 -2.19075,0.8572499 -2.19075,2.5505832 v 0.1164167 c 0,1.7039166 0.899584,2.5294166 2.19075,2.5294166 z m 0,-0.22225 c -1.132416,0 -1.93675,-0.7196667 -1.93675,-2.286 V 7.6410734 c 0,-1.524 0.814917,-2.3177499 1.93675,-2.3177499 1.132417,0 1.947334,0.6667499 1.947334,2.2859999 v 0.1375833 c 0,1.55575 -0.814917,2.3283333 -1.947334,2.3283333 z"
             style="font-style:normal;font-variant:normal;font-weight:100;font-stretch:normal;font-size:10.58333301999999954px;font-family:'Apple SD Gothic Neo';-inkscape-font-specification:'Apple SD Gothic Neo, Thin';font-variant-ligatures:normal;font-variant-caps:normal;font-variant-numeric:normal;font-feature-settings:normal;text-align:start;writing-mode:lr-tb;text-anchor:start;stroke-width:0.26458332000000001px;fill:#ffffff;fill-opacity:1"
             id="path846" />
          <path
             d="m 16.227887,10.223407 h 0.264584 V 5.9159901 c 0.613833,-0.3915833 1.27,-0.5820833 1.883833,-0.5820833 0.889,0 1.291167,0.2963333 1.291167,1.1324166 v 3.7570836 h 0.264583 V 6.4239901 c 0,-0.9525 -0.529167,-1.3229166 -1.4605,-1.3229166 -0.635,0 -1.344083,0.1905 -1.9685,0.5714999 h -0.02117 V 5.1751568 h -0.254 z"
             style="font-style:normal;font-variant:normal;font-weight:100;font-stretch:normal;font-size:10.58333301999999954px;font-family:'Apple SD Gothic Neo';-inkscape-font-specification:'Apple SD Gothic Neo, Thin';font-variant-ligatures:normal;font-variant-caps:normal;font-variant-numeric:normal;font-feature-settings:normal;text-align:start;writing-mode:lr-tb;text-anchor:start;stroke-width:0.26458332000000001px;fill:#ffffff;fill-opacity:1"
             id="path848" />
          <path
             d="m 23.623156,10.29749 c 0.73025,0 1.27,-0.169333 1.576917,-0.34925 V 9.7471567 c -0.338667,0.1481666 -0.867834,0.3175003 -1.545167,0.3175003 -1.449917,0 -2.116667,-0.7725837 -2.116667,-2.2965836 V 7.5881567 h 3.852334 v -0.127 c 0,-1.4710833 -0.592667,-2.3600832 -1.947334,-2.3600832 -1.2065,0 -2.169583,0.8149166 -2.169583,2.5505832 v 0.1164167 c 0,1.6615833 0.783167,2.5294166 2.3495,2.5294166 z m -0.1905,-4.9741665 c 1.164167,0 1.672167,0.7725833 1.672167,2.0425832 h -3.556 c 0.08467,-1.3864166 0.878416,-2.0425832 1.883833,-2.0425832 z"
             style="font-style:normal;font-variant:normal;font-weight:100;font-stretch:normal;font-size:10.58333301999999954px;font-family:'Apple SD Gothic Neo';-inkscape-font-specification:'Apple SD Gothic Neo, Thin';font-variant-ligatures:normal;font-variant-caps:normal;font-variant-numeric:normal;font-feature-settings:normal;text-align:start;writing-mode:lr-tb;text-anchor:start;stroke-width:0.26458332000000001px;fill:#ffffff;fill-opacity:1"
             id="path850" />
          <path
             d="m 27.892705,10.29749 c 1.2065,0 1.661584,-0.60325 1.661584,-1.3440833 0,-0.8466667 -0.433917,-1.1324167 -1.280584,-1.3864167 L 27.659872,7.3870734 c -0.719667,-0.22225 -0.973667,-0.47625 -0.973667,-1.0900833 0,-0.5820833 0.423334,-0.9630833 1.291167,-0.9630833 0.486833,0 0.973667,0.127 1.322917,0.2963333 v -0.22225 c -0.275167,-0.15875 -0.709084,-0.3069166 -1.344084,-0.3069166 -1.005416,0 -1.524,0.4868333 -1.524,1.2064999 0,0.762 0.359834,1.0900833 1.132417,1.30175 l 0.613833,0.1905 c 0.79375,0.22225 1.11125,0.4656666 1.11125,1.1641666 0,0.6138333 -0.34925,1.100667 -1.418166,1.100667 -0.709084,0 -1.143,-0.1693337 -1.534584,-0.3598337 v 0.2328333 c 0.338667,0.1799164 0.85725,0.3598334 1.55575,0.3598334 z"
             style="font-style:normal;font-variant:normal;font-weight:100;font-stretch:normal;font-size:10.58333301999999954px;font-family:'Apple SD Gothic Neo';-inkscape-font-specification:'Apple SD Gothic Neo, Thin';font-variant-ligatures:normal;font-variant-caps:normal;font-variant-numeric:normal;font-feature-settings:normal;text-align:start;writing-mode:lr-tb;text-anchor:start;stroke-width:0.26458332000000001px;fill:#ffffff;fill-opacity:1"
             id="path852" />
          <path
             d="m 32.31108,10.26574 c 0.328084,0 0.613834,-0.09525 0.762,-0.148167 V 9.9059066 c -0.201083,0.0635 -0.465666,0.1164164 -0.709083,0.1164164 -0.66675,0 -0.85725,-0.232833 -0.85725,-0.7937497 V 5.4079901 h 1.4605 V 5.1645735 h -1.4605 V 3.9686568 h -0.264583 v 1.1959167 h -0.762 v 0.2434166 h 0.762 v 3.8629166 c 0,0.6561666 0.338666,0.9948333 1.068916,0.9948333 z"
             style="font-style:normal;font-variant:normal;font-weight:100;font-stretch:normal;font-size:10.58333301999999954px;font-family:'Apple SD Gothic Neo';-inkscape-font-specification:'Apple SD Gothic Neo, Thin';font-variant-ligatures:normal;font-variant-caps:normal;font-variant-numeric:normal;font-feature-settings:normal;text-align:start;writing-mode:lr-tb;text-anchor:start;stroke-width:0.26458332000000001px;fill:#ffffff;fill-opacity:1"
             id="path854" />
          <path
             d="m 34.606506,10.20224 h 2.25425 c 1.397,0 2.137833,-0.6773333 2.137833,-1.905 0,-1.2488333 -0.899583,-1.6615833 -1.703917,-1.7250833 v -0.010583 c 0.740834,-0.1375833 1.344084,-0.6561666 1.344084,-1.6404166 0,-1.1324166 -0.624417,-1.68275 -2.084917,-1.68275 H 34.606506 Z M 34.881672,9.9588233 V 6.7203234 h 1.756834 c 1.291166,0 2.074333,0.41275 2.074333,1.5663333 0,1.143 -0.635,1.6721666 -1.862667,1.6721666 z m 0,-3.4819166 V 3.4924068 h 1.672167 c 1.280583,0 1.80975,0.4339167 1.80975,1.4605 0,1.0265833 -0.762,1.5239999 -1.778,1.5239999 z"
             style="font-style:normal;font-variant:normal;font-weight:100;font-stretch:normal;font-size:10.58333301999999954px;font-family:'Apple SD Gothic Neo';-inkscape-font-specification:'Apple SD Gothic Neo, Thin';font-variant-ligatures:normal;font-variant-caps:normal;font-variant-numeric:normal;font-feature-settings:normal;text-align:start;writing-mode:lr-tb;text-anchor:start;stroke-width:0.26458332000000001px;fill:#ffffff;fill-opacity:1"
             id="path856" />
          <path
             d="m 40.463387,10.20224 h 0.264584 V 5.1645735 h -0.264584 z m -0.01058,-6.2018332 h 0.275167 V 3.6088235 h -0.275167 z"
             style="font-style:normal;font-variant:normal;font-weight:100;font-stretch:normal;font-size:10.58333301999999954px;font-family:'Apple SD Gothic Neo';-inkscape-font-specification:'Apple SD Gothic Neo, Thin';font-variant-ligatures:normal;font-variant-caps:normal;font-variant-numeric:normal;font-feature-settings:normal;text-align:start;writing-mode:lr-tb;text-anchor:start;stroke-width:0.26458332000000001px;fill:#ffffff;fill-opacity:1"
             id="path858" />
          <path
             d="m 43.582162,10.29749 c 0.79375,0 1.322917,-0.3069167 1.55575,-0.5291667 h 0.01058 l 0.02117,0.4550837 h 0.254 V 6.5086567 c 0,-1.0054166 -0.5715,-1.4075832 -1.545167,-1.4075832 -0.518583,0 -0.98425,0.084667 -1.407583,0.2539999 v 0.2116667 c 0.391583,-0.127 0.836083,-0.2328333 1.322917,-0.2328333 0.910166,0 1.344083,0.3175 1.344083,1.2276666 v 0.79375 l -1.598083,0.1693333 c -1.026584,0.1164167 -1.524,0.5820833 -1.524,1.4393333 0,0.8255 0.624416,1.3335 1.566333,1.3335 z m 0.04233,-0.211667 c -0.836083,0 -1.3335,-0.4444997 -1.3335,-1.1429997 0,-0.7302499 0.402167,-1.1112499 1.312334,-1.1959166 L 45.137912,7.56699 V 9.5460733 C 44.841579,9.82124 44.333579,10.085823 43.624495,10.085823 Z"
             style="font-style:normal;font-variant:normal;font-weight:100;font-stretch:normal;font-size:10.58333301999999954px;font-family:'Apple SD Gothic Neo';-inkscape-font-specification:'Apple SD Gothic Neo, Thin';font-variant-ligatures:normal;font-variant-caps:normal;font-variant-numeric:normal;font-feature-settings:normal;text-align:start;writing-mode:lr-tb;text-anchor:start;stroke-width:0.26458332000000001px;fill:#ffffff;fill-opacity:1"
             id="path860" />
          <path
             d="m 48.253218,10.29749 c 1.2065,0 1.661583,-0.60325 1.661583,-1.3440833 0,-0.8466667 -0.433916,-1.1324167 -1.280583,-1.3864167 L 48.020385,7.3870734 c -0.719667,-0.22225 -0.973667,-0.47625 -0.973667,-1.0900833 0,-0.5820833 0.423333,-0.9630833 1.291167,-0.9630833 0.486833,0 0.973666,0.127 1.322916,0.2963333 v -0.22225 c -0.275166,-0.15875 -0.709083,-0.3069166 -1.344083,-0.3069166 -1.005417,0 -1.524,0.4868333 -1.524,1.2064999 0,0.762 0.359833,1.0900833 1.132417,1.30175 l 0.613833,0.1905 c 0.79375,0.22225 1.11125,0.4656666 1.11125,1.1641666 0,0.6138333 -0.34925,1.100667 -1.418167,1.100667 -0.709083,0 -1.143,-0.1693337 -1.534583,-0.3598337 v 0.2328333 c 0.338667,0.1799164 0.85725,0.3598334 1.55575,0.3598334 z"
             style="font-style:normal;font-variant:normal;font-weight:100;font-stretch:normal;font-size:10.58333301999999954px;font-family:'Apple SD Gothic Neo';-inkscape-font-specification:'Apple SD Gothic Neo, Thin';font-variant-ligatures:normal;font-variant-caps:normal;font-variant-numeric:normal;font-feature-settings:normal;text-align:start;writing-mode:lr-tb;text-anchor:start;stroke-width:0.26458332000000001px;fill:#ffffff;fill-opacity:1"
             id="path862" />
        </g>
        <g
           id="g904"
           transform="matrix(1.4342965,0.4093301,-0.48691089,1.2057662,-32.366303,-19.828824)">
          <g
             style="fill:#ffffff;fill-opacity:1"
             id="g902">
            <path
               id="path896"
               d="m 33.858807,5.8785031 h 1.55523 v 1.8884917 h -1.55523 z"
               style="opacity:0.98000004;fill:#ffffff;fill-opacity:1;stroke:none;stroke-width:0.16157667;stroke-miterlimit:4;stroke-dasharray:none;stroke-opacity:1" />
            <path
               id="path898"
               d="m 33.858807,7.8632712 h 1.55523 V 8.277999 h -1.55523 z"
               style="opacity:0.98000004;fill:#ffffff;fill-opacity:1;stroke:none;stroke-width:0.07571865;stroke-miterlimit:4;stroke-dasharray:none;stroke-opacity:1" />
            <path
               id="path900"
               d="m 33.330652,8.4001286 h 2.614253 v 0.1555233 h -2.614253 z"
               style="opacity:0.98000004;fill:#ffffff;fill-opacity:1;stroke:none;stroke-width:0.06011673;stroke-miterlimit:4;stroke-dasharray:none;stroke-opacity:1" />
          </g>
        </g>
      </g>
    </g>
  </g>
  <metadata
     id="metadata4729">
    <rdf:RDF>
      <cc:Work
         rdf:about="">
        <dc:title></dc:title>
        <dc:format>image/svg+xml</dc:format>
        <dc:type
           rdf:resource="http://purl.org/dc/dcmitype/StillImage" />
      </cc:Work>
    </rdf:RDF>
  </metadata>
</svg>
